<?xml version="1.0" encoding="UTF-8" standalone="no"?>
<svg
   xmlns:dc="http://purl.org/dc/elements/1.1/"
   xmlns:cc="http://creativecommons.org/ns#"
   xmlns:rdf="http://www.w3.org/1999/02/22-rdf-syntax-ns#"
   xmlns:svg="http://www.w3.org/2000/svg"
   xmlns="http://www.w3.org/2000/svg"
   xmlns:sodipodi="http://sodipodi.sourceforge.net/DTD/sodipodi-0.dtd"
   xmlns:inkscape="http://www.inkscape.org/namespaces/inkscape"
   version="1.1"
   id="Capa_1"
   x="0px"
   y="0px"
   width="306.257px"
   height="306.257px"
   viewBox="0 0 306.257 306.257"
   style="enable-background:new 0 0 306.257 306.257;"
   xml:space="preserve"
   sodipodi:docname="mute-btn.svg"
   inkscape:version="1.0.1 (0767f8302a, 2020-10-17)"><metadata
   id="metadata45"><rdf:RDF><cc:Work
       rdf:about=""><dc:format>image/svg+xml</dc:format><dc:type
         rdf:resource="http://purl.org/dc/dcmitype/StillImage" /></cc:Work></rdf:RDF></metadata><defs
   id="defs43" /><sodipodi:namedview
   pagecolor="#ffffff"
   bordercolor="#666666"
   borderopacity="1"
   objecttolerance="10"
   gridtolerance="10"
   guidetolerance="10"
   inkscape:pageopacity="0"
   inkscape:pageshadow="2"
   inkscape:window-width="1366"
   inkscape:window-height="712"
   id="namedview41"
   showgrid="false"
   inkscape:zoom="1.7795512"
   inkscape:cx="153.12849"
   inkscape:cy="153.12849"
   inkscape:window-x="0"
   inkscape:window-y="0"
   inkscape:window-maximized="1"
   inkscape:current-layer="Capa_1" />
<g
   id="g8"
   style="fill:#fafafa;fill-opacity:1">
	<path
   d="M19.747,121.968v70.068c0,21.499,17.43,38.924,38.924,38.924h40.703l112.088,73.612   c11.351,6.271,26.808-5.883,34.372-21.256L47.261,84.75C31.333,89.628,19.747,104.438,19.747,121.968z"
   id="path2"
   style="fill:#fafafa;fill-opacity:1" />
	<path
   d="M250.386,41.816c0-21.5-19.464-51.253-38.924-38.924L108.71,76.499l141.676,141.677V41.816z"
   id="path4"
   style="fill:#fafafa;fill-opacity:1" />
	<path
   d="M55.463,83.202l193.146,193.145l18.88,18.874c3.459,3.469,8.005,5.204,12.547,5.204c4.541,0,9.087-1.735,12.552-5.204   c6.934-6.929,6.934-18.17,0-25.104l-42.197-42.197L103.037,80.566L38.771,16.314c-3.461-3.469-8.005-5.204-12.549-5.204   c-4.544,0-9.085,1.735-12.552,5.204c-6.937,6.928-6.937,18.17,0,25.101L55.463,83.202z"
   id="path6"
   style="fill:#fafafa;fill-opacity:1" />
</g>
<g
   id="g10">
</g>
<g
   id="g12">
</g>
<g
   id="g14">
</g>
<g
   id="g16">
</g>
<g
   id="g18">
</g>
<g
   id="g20">
</g>
<g
   id="g22">
</g>
<g
   id="g24">
</g>
<g
   id="g26">
</g>
<g
   id="g28">
</g>
<g
   id="g30">
</g>
<g
   id="g32">
</g>
<g
   id="g34">
</g>
<g
   id="g36">
</g>
<g
   id="g38">
</g>
</svg>
