<?xml version="1.0" encoding="UTF-8" standalone="no"?>
<svg
   xmlns:dc="http://purl.org/dc/elements/1.1/"
   xmlns:cc="http://creativecommons.org/ns#"
   xmlns:rdf="http://www.w3.org/1999/02/22-rdf-syntax-ns#"
   xmlns:svg="http://www.w3.org/2000/svg"
   xmlns="http://www.w3.org/2000/svg"
   xmlns:sodipodi="http://sodipodi.sourceforge.net/DTD/sodipodi-0.dtd"
   xmlns:inkscape="http://www.inkscape.org/namespaces/inkscape"
   version="1.1"
   id="Capa_1"
   x="0px"
   y="0px"
   viewBox="0 0 409.6 409.6"
   style="enable-background:new 0 0 409.6 409.6;"
   xml:space="preserve"
   sodipodi:docname="pause-btn.svg"
   inkscape:version="1.0.1 (0767f8302a, 2020-10-17)"><metadata
   id="metadata43"><rdf:RDF><cc:Work
       rdf:about=""><dc:format>image/svg+xml</dc:format><dc:type
         rdf:resource="http://purl.org/dc/dcmitype/StillImage" /></cc:Work></rdf:RDF></metadata><defs
   id="defs41" /><sodipodi:namedview
   pagecolor="#ffffff"
   bordercolor="#666666"
   borderopacity="1"
   objecttolerance="10"
   gridtolerance="10"
   guidetolerance="10"
   inkscape:pageopacity="0"
   inkscape:pageshadow="2"
   inkscape:window-width="1366"
   inkscape:window-height="712"
   id="namedview39"
   showgrid="false"
   inkscape:zoom="1.3305664"
   inkscape:cx="204.8"
   inkscape:cy="204.8"
   inkscape:window-x="0"
   inkscape:window-y="0"
   inkscape:window-maximized="1"
   inkscape:current-layer="Capa_1" />
<g
   id="g6"
   style="fill:#fafafa;fill-opacity:1">
	<g
   id="g4"
   style="fill:#fafafa;fill-opacity:1">
		<path
   d="M204.8,0C91.648,0,0,91.648,0,204.8s91.648,204.8,204.8,204.8s204.8-91.648,204.8-204.8S317.952,0,204.8,0z M182.272,256    c0,12.8-10.24,22.528-22.528,22.528c-12.8,0-22.528-10.24-22.528-22.528V153.6c-0.512-12.288,9.728-22.528,22.016-22.528    c12.8,0,23.04,10.24,23.04,22.528V256z M272.896,256c0,12.8-10.24,22.528-22.528,22.528c-12.8,0-22.528-10.24-22.528-22.528V153.6    c-0.512-12.288,9.728-22.528,22.016-22.528c12.8,0,23.04,10.24,23.04,22.528V256z"
   id="path2"
   style="fill:#fafafa;fill-opacity:1" />
	</g>
</g>
<g
   id="g8">
</g>
<g
   id="g10">
</g>
<g
   id="g12">
</g>
<g
   id="g14">
</g>
<g
   id="g16">
</g>
<g
   id="g18">
</g>
<g
   id="g20">
</g>
<g
   id="g22">
</g>
<g
   id="g24">
</g>
<g
   id="g26">
</g>
<g
   id="g28">
</g>
<g
   id="g30">
</g>
<g
   id="g32">
</g>
<g
   id="g34">
</g>
<g
   id="g36">
</g>
</svg>
