<?xml version="1.0" encoding="UTF-8" standalone="no"?>
<svg
   xmlns:dc="http://purl.org/dc/elements/1.1/"
   xmlns:cc="http://creativecommons.org/ns#"
   xmlns:rdf="http://www.w3.org/1999/02/22-rdf-syntax-ns#"
   xmlns:svg="http://www.w3.org/2000/svg"
   xmlns="http://www.w3.org/2000/svg"
   xmlns:sodipodi="http://sodipodi.sourceforge.net/DTD/sodipodi-0.dtd"
   xmlns:inkscape="http://www.inkscape.org/namespaces/inkscape"
   version="1.1"
   id="Capa_1"
   x="0px"
   y="0px"
   viewBox="0 0 18.909 18.909"
   style="enable-background:new 0 0 18.909 18.909;"
   xml:space="preserve"
   sodipodi:docname="previous-btn.svg"
   inkscape:version="1.0.1 (0767f8302a, 2020-10-17)"><metadata
   id="metadata43"><rdf:RDF><cc:Work
       rdf:about=""><dc:format>image/svg+xml</dc:format><dc:type
         rdf:resource="http://purl.org/dc/dcmitype/StillImage" /><dc:title /></cc:Work></rdf:RDF></metadata><defs
   id="defs41" /><sodipodi:namedview
   pagecolor="#ffffff"
   bordercolor="#666666"
   borderopacity="1"
   objecttolerance="10"
   gridtolerance="10"
   guidetolerance="10"
   inkscape:pageopacity="0"
   inkscape:pageshadow="2"
   inkscape:window-width="1366"
   inkscape:window-height="712"
   id="namedview39"
   showgrid="false"
   inkscape:zoom="28.822253"
   inkscape:cx="9.4545002"
   inkscape:cy="9.4545002"
   inkscape:window-x="0"
   inkscape:window-y="0"
   inkscape:window-maximized="1"
   inkscape:current-layer="Capa_1"
   inkscape:document-rotation="0"><inkscape:grid
     type="xygrid"
     id="grid45" /></sodipodi:namedview>
<g
   id="g6"
   style="fill:#fafafa;fill-opacity:1">
	<path
   style="fill:#fafafa;fill-opacity:1"
   d="M10.193,8.311L1.887,1.714C1.484,1.511,1.003,1.533,0.619,1.766C0.233,1.998,0,2.412,0,2.856v13.198   c0,0.443,0.233,0.856,0.619,1.089c0.208,0.126,0.444,0.19,0.683,0.19c0.201,0,0.401-0.046,0.586-0.138l8.306-6.599   c0.4-0.376,0.716-0.658,0.716-1.143S10.641,8.707,10.193,8.311z"
   id="path2" />
	<path
   style="fill:#fafafa;fill-opacity:1"
   d="M18.193,8.311L9.887,1.714C9.484,1.511,9.002,1.533,8.618,1.766   c-0.386,0.232-0.619,0.646-0.619,1.09v13.198c0,0.443,0.233,0.856,0.619,1.089c0.208,0.126,0.444,0.19,0.683,0.19   c0.201,0,0.401-0.046,0.586-0.138l8.306-6.599c0.4-0.376,0.716-0.658,0.716-1.143S18.641,8.707,18.193,8.311z"
   id="path4" />
</g>
<g
   id="g8">
</g>
<g
   id="g10">
</g>
<g
   id="g12">
</g>
<g
   id="g14">
</g>
<g
   id="g16">
</g>
<g
   id="g18">
</g>
<g
   id="g20">
</g>
<g
   id="g22">
</g>
<g
   id="g24">
</g>
<g
   id="g26">
</g>
<g
   id="g28">
</g>
<g
   id="g30">
</g>
<g
   id="g32">
</g>
<g
   id="g34">
</g>
<g
   id="g36">
</g>
</svg>
